<?xml version="1.0" encoding="UTF-8"?>
<svg width="60px" height="60px" viewBox="0 0 60 60" version="1.1" xmlns="http://www.w3.org/2000/svg" xmlns:xlink="http://www.w3.org/1999/xlink">
    <!-- Generator: Sketch 54.1 (76490) - https://sketchapp.com -->
    <title>brand</title>
    <desc>Created with Sketch.</desc>
    <defs>
        <linearGradient x1="50%" y1="0%" x2="50%" y2="100%" id="linearGradient-1">
            <stop stop-color="#26A49A" stop-opacity="0.997213724" offset="0%"></stop>
            <stop stop-color="#11CFC0" offset="100%"></stop>
        </linearGradient>
    </defs>
    <g id="Page-1" stroke="none" stroke-width="1" fill="none" fill-rule="evenodd">
        <g id="Inicio" transform="translate(-159.000000, -215.000000)">
            <g id="brand" transform="translate(159.000000, 215.000000)">
                <rect id="Rectangle" fill="url(#linearGradient-1)" x="0" y="0" width="60" height="60" rx="13"></rect>
                <path d="M7,34.2522098 L14.5044196,26.7477902 L21.2133176,25.421921 C29.7519151,13.807307 46.0866235,8 52,8 C52,13.9133765 46.192693,30.2480849 34.578079,38.7866824 L33.2522098,45.4955804 L25.7477902,53 L23.865056,43.6393636 C20.1261049,43.6393636 20.1261049,43.6393636 18.2433707,41.7566293 C16.3606364,39.8738951 16.3606364,39.8738951 16.3606364,36.134944 L7,34.2522098 L7,34.2522098 Z M14.5044196,41.7566293 L18.2433707,45.4955804 L11.1897466,52.5757219 L7.42427814,52.5757219 L7.42427814,48.8102534 L14.5044196,41.7566293 L14.5044196,41.7566293 Z M10.7389511,38.0176783 L14.0271067,38.4684738 L7.50383029,44.9652328 L7.50383029,41.1997643 L10.7389511,38.0176783 L10.7389511,38.0176783 Z M21.5315262,45.9728933 L21.9823217,49.2610489 L18.8002357,52.4961697 L15.0347672,52.4961697 L21.5315262,45.9728933 L21.5315262,45.9728933 Z M34.0212139,22.0011786 C31.8244419,22.0011786 30.0436064,23.7820141 30.0436064,25.9787861 C30.0436064,28.1755581 31.8244419,29.9563936 34.0212139,29.9563936 C36.2179859,29.9563936 37.9988214,28.1755581 37.9988214,25.9787861 C37.9988214,23.7820141 36.2179859,22.0011786 34.0212139,22.0011786 Z" id="Shape" fill="#FFFFFF" fill-rule="nonzero"></path>
            </g>
        </g>
    </g>
</svg>