<?xml version="1.0" encoding="UTF-8"?>
<svg width="25px" height="25px" viewBox="0 0 25 25" version="1.1" xmlns="http://www.w3.org/2000/svg" xmlns:xlink="http://www.w3.org/1999/xlink">
    <!-- Generator: Sketch 54.1 (76490) - https://sketchapp.com -->
    <title>Shape</title>
    <desc>Created with Sketch.</desc>
    <g id="Page-1" stroke="none" stroke-width="1" fill="none" fill-rule="evenodd">
        <g id="Questão" transform="translate(-335.000000, -16.000000)" fill="#333333" fill-rule="nonzero">
            <g id="Top">
                <path d="M335,30.584561 L339.169122,26.415439 L342.896288,25.678845 C347.639953,19.2262817 356.714791,16 360,16 C360,19.2852092 356.773718,28.3600471 350.321155,33.1037124 L349.584561,36.830878 L345.415439,41 L344.369476,35.7996464 C342.29228,35.7996464 342.29228,35.7996464 341.246317,34.753683 C340.200354,33.7077195 340.200354,33.7077195 340.200354,31.6305245 L335,30.584561 L335,30.584561 Z M339.169122,34.753683 L341.246317,36.830878 L337.327637,40.7642899 L335.23571,40.7642899 L335.23571,38.672363 L339.169122,34.753683 L339.169122,34.753683 Z M337.077195,32.6764879 L338.903948,32.9269299 L335.279906,36.5362404 L335.279906,34.4443135 L337.077195,32.6764879 L337.077195,32.6764879 Z M343.07307,37.0960519 L343.323512,38.9228049 L341.555687,40.7200943 L339.46376,40.7200943 L343.07307,37.0960519 L343.07307,37.0960519 Z M350.011786,23.7784325 C348.791357,23.7784325 347.802004,24.7677856 347.802004,25.9882145 C347.802004,27.2086434 348.791357,28.1979965 350.011786,28.1979965 C351.232214,28.1979965 352.221567,27.2086434 352.221567,25.9882145 C352.221567,24.7677856 351.232214,23.7784325 350.011786,23.7784325 Z" id="Shape"></path>
            </g>
        </g>
    </g>
</svg>