<?xml version="1.0" encoding="UTF-8"?>
<svg width="100px" height="107px" viewBox="0 0 100 107" version="1.1" xmlns="http://www.w3.org/2000/svg" xmlns:xlink="http://www.w3.org/1999/xlink">
    <!-- Generator: Sketch 54.1 (76490) - https://sketchapp.com -->
    <title>Shape</title>
    <desc>Created with Sketch.</desc>
    <g id="Page-1" stroke="none" stroke-width="1" fill="none" fill-rule="evenodd">
        <g id="Errou" transform="translate(-138.000000, -183.000000)" fill="#CE340C" fill-rule="nonzero">
            <g id="thumbs-up-regular" transform="translate(188.000000, 236.333333) rotate(180.000000) translate(-188.000000, -236.333333) translate(138.000000, 183.000000)">
                <path d="M97.1395833,59.7270833 C98.9666667,56.6333333 100,53.3333333 100,49.34375 C100,40.1739583 92.24625,31.5145833 82.1208333,31.5145833 L74.5208333,31.5145833 C75.5458333,28.8458333 76.3645833,25.6541667 76.3645833,21.81875 C76.3645833,6.65333333 68.5125,0 56.5166667,0 C43.681875,0 44.4139583,19.7777083 41.5666667,22.625 C36.8277083,27.3639583 31.2302083,36.468125 27.2416667,40 L6.66666667,40 C2.98479167,40 0,42.9847917 0,46.6666667 L0,96.6666667 C0,100.348542 2.98479167,103.333333 6.66666667,103.333333 L20,103.333333 C23.1027083,103.333333 25.71,101.21375 26.45375,98.34375 C35.7264583,98.5522917 42.09125,106.664583 63.4958333,106.664583 C65,106.664583 66.6666667,106.666667 68.125,106.666667 C84.1910417,106.666667 91.4554167,98.4535417 91.6541667,86.80625 C94.4289583,82.9677083 95.883125,77.8225 95.2666667,72.85 C97.3195833,69.0058333 98.1133333,64.4452083 97.1395833,59.7270833 Z M84.275,70.9416667 C86.8916667,75.34375 84.5375,81.2354167 81.3708333,82.9354167 C82.975,93.0979167 77.7025,96.6645833 70.3041667,96.6645833 L62.425,96.6645833 C47.5002083,96.6645833 37.835625,88.7854167 26.6666667,88.7854167 L26.6666667,50 L28.9416667,50 C34.85,50 43.1041667,35.23125 48.6375,29.6958333 C54.5458333,23.7875 52.5770833,13.9395833 56.5166667,10 C66.3645833,10 66.3645833,16.8708333 66.3645833,21.81875 C66.3645833,29.9791667 60.45625,33.6354167 60.45625,41.5145833 L82.1208333,41.5145833 C86.51875,41.5145833 89.98125,45.4541667 90,49.39375 C90.01875,53.33125 87.3291667,57.2708333 85.3604167,57.2708333 C88.170625,60.303125 88.7710417,66.695 84.275,70.9416667 Z M18.3333333,90 C18.3333333,92.7614583 16.0947917,95 13.3333333,95 C10.571875,95 8.33333333,92.7614583 8.33333333,90 C8.33333333,87.2385417 10.571875,85 13.3333333,85 C16.0947917,85 18.3333333,87.2385417 18.3333333,90 Z" id="Shape"></path>
            </g>
        </g>
    </g>
</svg>